<svg xmlns="http://www.w3.org/2000/svg" width="1289" height="771" fill="none"><g stroke="#fff" opacity=".55"><path d="M668 403.5v-86.515a6 6 0 0 1 1.757-4.242l9.486-9.486a6 6 0 0 0 1.757-4.242v-90.53a6 6 0 0 1 1.757-4.242l77.486-77.486a6 6 0 0 0 1.757-4.242V0m-59 401.5V216.985a6 6 0 0 1 1.757-4.242l75.986-75.986a6 6 0 0 0 1.757-4.242V0M726 398V223.485a6 6 0 0 1 1.757-4.242l75.986-75.986a6 6 0 0 0 1.757-4.242V0"/><path stroke-linecap="round" d="M641 343H391.933a12.998 12.998 0 0 0-8.146 2.869l-31.421 25.262A12.998 12.998 0 0 1 344.22 374H1"/><path stroke-linecap="round" d="M641 359H397.933a12.998 12.998 0 0 0-8.146 2.869l-31.421 25.262A12.998 12.998 0 0 1 350.22 390H7"/><path stroke-linecap="round" d="M640.5 373H409.933a12.998 12.998 0 0 0-8.146 2.869l-31.421 25.262A12.998 12.998 0 0 1 362.22 404H19"/><path stroke-linecap="round" d="M639.5 388H420.15a13 13 0 0 0-8.156 2.877l-31.337 25.246a12.995 12.995 0 0 1-8.155 2.877H30"/><path stroke-linecap="round" d="M643.5 403H430.933a12.998 12.998 0 0 0-8.146 2.869l-31.421 25.262A12.998 12.998 0 0 1 383.22 434H40"/><path stroke-linecap="round" d="M644 417H438.15a13 13 0 0 0-8.156 2.877l-31.337 25.246a12.995 12.995 0 0 1-8.155 2.877H48"/><path stroke-linecap="round" d="M642.5 434H448.15a13 13 0 0 0-8.156 2.877l-31.337 25.246a12.995 12.995 0 0 1-8.155 2.877H58"/><path d="M119.5 233h380.015a6 6 0 0 1 4.242 1.757l66.486 66.486a6 6 0 0 1 1.757 4.242V405m19 0V292.985a6 6 0 0 0-1.757-4.242l-71.486-71.486a6 6 0 0 0-4.242-1.757H119.5m486 189.5V283.485a6 6 0 0 0-1.757-4.242l-80.986-80.986a6 6 0 0 0-4.242-1.757H119.5m500 208.5V297.985a6 6 0 0 1 1.757-4.242l9.486-9.486a6 6 0 0 0 1.757-4.242v-19.03a6 6 0 0 0-1.757-4.242l-31.486-31.486a6 6 0 0 0-4.242-1.757h-17.03a6 6 0 0 1-4.242-1.757l-45.486-45.486a6 6 0 0 0-4.242-1.757H121.5m520 230.5v-97.015a6 6 0 0 1 1.757-4.242l11.486-11.486a6 6 0 0 0 1.757-4.242v-32.03a6 6 0 0 0-1.757-4.242l-41.486-41.486a6 6 0 0 0-4.242-1.757h-17.03a6 6 0 0 1-4.242-1.757l-45.486-45.486a6 6 0 0 0-4.242-1.757H120"/><path stroke-linecap="round" d="M585 406.5v159.156c0 8.837-7.163 16-16 16H367c-8.837 0-16 7.164-16 16V770m293.5-326.001h213.688a13 13 0 0 1 10.216 4.961l43.349 55.079a12.998 12.998 0 0 0 10.215 4.96L1284.5 509M642 369h216.188a13 13 0 0 0 10.216-4.96l43.349-55.079A12.999 12.999 0 0 1 921.968 304H1288.5"/><path stroke-linecap="round" d="M643 424h228.124a13 13 0 0 1 9.879 4.55l46.105 53.9a13 13 0 0 0 9.879 4.55H1284.5M642 389h229.124a13 13 0 0 0 9.879-4.55l46.105-53.9a13 13 0 0 1 9.879-4.55H1285m-643.5 81h643"/><path stroke-linecap="round" d="M702 408.5v157.156c0 8.837 7.163 16 16 16h201c8.837 0 16 7.164 16 16V770M644 407v363"/></g></svg>